/* XPM */
static char *result[] = {
/* columns rows colors chars-per-pixel */
"128 32 12 1 ",
"  c #141412",
". c #233219",
"X c #44280F",
"o c #4B3720",
"O c #3F5D27",
"+ c #70431C",
"@ c #825E3A",
"# c #5D8D38",
"$ c #77B845",
"% c #BD9168",
"& c #ECCBAC",
"* c None",
/* pixels */
"********************************************************************************************************************************",
"********************************************************************************************************************************",
"************........************************************************************************************************************",
"***********.#$$$$$$#.***************************************************************************************........************",
"**********.O$$$$$$$$$.**********************........************************........***********************.#$$$$$$#.***********",
"*********.OO$$$$$$$$$#.********************.#$$$$$$#.**********************.#$$$$$$#.*********************.O$$$$$$$$#.**********",
"*****.....OO#$$$$$$$$O *******************.O$$$$$$$$$.********************.O$$$$$$$$$.*******************.OO$$$$$$$$$O.*********",
"*****.$$$$OOO#$$$$$$#O ******************.OO$$$$$$$$$#.******************.OO$$$$$$$$$.***************.....OO#$$$$$$$$O *********",
"******.$##$$OO#O  ..  O**************.....OO#$$$$$$$$O ******************.OO$$$$$$$$$#.**************.$$$$OOO#$$$$$$#O *********",
"*******.$OO#$O##  OO  oo*************.$$$$OOO#$$$$$$#O **************.....OO#$$$$$$$$O ***************.$##$$OO#O  ..  O*********",
"******** #O..###&O#$..&o**************.$##$$OO#O  ..  O**************.$$$$$$O#$$$$$$#O ****************.$OO#$O##  OO  oo********",
"********* ...#$&&O#$..&o***************.$OO#$O##  OO  oo**************.$##O#$O#O  ..  O***************** #O..###&O#$..&o********",
"********** ..##&&OOOO&&o**************** #O..###&O#$..&o***************.$OO..O##  OO  oo***************** ...#$&&O#$..&o********",
"***********  .#&&O##$&&o***************** ...#$&&O#$..&o**************** #...###&O#$..&o****************** ..##&&OOOO&&o********",
"**********    .&%O..#&%o****************** ..##&&OOOO&&o****************** ..#$&&O#$..&o*******************  .#&&O##$&&o********",
"*********.##O  ...  .. ********************  .#&&O##$&&o*******************  ##&&OOOO&&o******************    .&%O..#&%o********",
"********.######$$$#$$  *******************    .&%O..#&%o*******************  .#&&O##$&&o*****************.##O  ...  .. *********",
"********.####O$$$$$$$  ******************.##O  ...  .. *******************    .&%O..#&%o****************.######$$$#$$  *********",
"******** O##OO$$$$$$$  *****************.######$$$#$$  ******************.##O  ...  .. *****************.####O$$$$$$$  *********",
"*********  ...#$$$#$$ ******************.####O$$$$$$$  *****************.####O$$$$$$$  ***************** O##OO$$$$$$$  *********",
"***********   .OOOOO ******************* O##OO$$$$$$$  *****************.###OO$$$$$$$  ******************  ...#$$$#$$ **********",
"************   .... *********************  ...#$$$#$$ ****************** O##..#$$$#$$ *********************   .OOOOO ***********",
"************ @@@%%%% **********************   .OOOOO ********************  .  .OOOOO *********************** @@@%%%% ***********",
"*********** XXX++@+@ *********************** @@@%%%% *********************** @@@%%%% ********************** XXX++@+@ ***********",
"*********** XXX++%+%+ ********************* XXX++@+@ ********************** XXX++@+@ ********************** XXX++%+%+ **********",
"********** XXXX++%+%+ ********************* XXX++%+%+ ********************* XXX++%+%+ ******************** XXXX++%+%+ **********",
"********** XXXX++++++X ******************* XXXX++%+%+ ******************** XXXX++%+%+ ******************** XXXX++++++X *********",
"**********             ******************* XXXX++++++X ******************* XXXX++++++X *******************             *********",
"********** XXXX ** XXX *******************             *******************             ******************* XXXX ** XXX *********",
"********* XXXX *** XXX ******************* XXXX ** XXX ******************* XXXX ** XXX ****************** XXXX *** XXX *********",
"********* XXX **** XXXX ***************** XXXX *** XXX  ***************** XXXX *** XXX  ***************** XXX **** XXXX ********",
"******** ++++ **** X++++ *************** ++++ **** X++++ *************** ++++ **** X++++ *************** ++++ **** X++++ *******"
};
